<svg width="450" height="380" viewBox="0 0 450 380" fill="none" xmlns="http://www.w3.org/2000/svg">
<path d="M404.91 358.641H375.102V358.866H404.91V358.641Z" fill="#EBEBEB" fill-opacity="0.7"/>
<path d="M298.098 361.089H290.277V361.314H298.098V361.089Z" fill="#EBEBEB" fill-opacity="0.7"/>
<path d="M374.202 350.289H356.931V350.514H374.202V350.289Z" fill="#EBEBEB" fill-opacity="0.7"/>
<path d="M86.0849 351.801H47.2139V352.026H86.0849V351.801Z" fill="#EBEBEB" fill-opacity="0.7"/>
<path d="M99.8005 351.801H94.1035V352.026H99.8005V351.801Z" fill="#EBEBEB" fill-opacity="0.7"/>
<path d="M202.635 355.599H118.323V355.824H202.635V355.599Z" fill="#EBEBEB" fill-opacity="0.7"/>
<path d="M213.3 304.02H39.5277C38.1647 304.02 36.8576 303.479 35.8939 302.515C34.9301 301.551 34.3887 300.244 34.3887 298.881V54.594C34.4005 53.2389 34.9472 51.9433 35.9097 50.9892C36.8721 50.0352 38.1725 49.4999 39.5277 49.5H213.3C214.663 49.5 215.97 50.0414 216.934 51.0052C217.897 51.9689 218.439 53.2761 218.439 54.639V298.881C218.439 300.244 217.897 301.551 216.934 302.515C215.97 303.479 214.663 304.02 213.3 304.02ZM39.5277 49.68C38.2251 49.6824 36.9766 50.2009 36.0556 51.1219C35.1345 52.0429 34.6161 53.2915 34.6137 54.594V298.881C34.6161 300.184 35.1345 301.432 36.0556 302.353C36.9766 303.274 38.2251 303.793 39.5277 303.795H213.3C214.602 303.793 215.851 303.274 216.772 302.353C217.693 301.432 218.211 300.184 218.214 298.881V54.594C218.211 53.2915 217.693 52.0429 216.772 51.1219C215.851 50.2009 214.602 49.6824 213.3 49.68H39.5277Z" fill="#EBEBEB" fill-opacity="0.7"/>
<path d="M407.979 304.02H234.189C232.827 304.018 231.521 303.475 230.558 302.512C229.594 301.549 229.052 300.243 229.05 298.881V54.594C229.064 53.2396 229.611 51.9454 230.573 50.9918C231.535 50.0383 232.834 49.5023 234.189 49.5H407.979C409.331 49.5047 410.627 50.042 411.585 50.9956C412.544 51.9491 413.088 53.242 413.1 54.594V298.881C413.1 300.241 412.561 301.545 411.601 302.508C410.641 303.472 409.339 304.015 407.979 304.02ZM234.189 49.68C232.886 49.6824 231.638 50.2009 230.717 51.1219C229.796 52.0429 229.277 53.2915 229.275 54.594V298.881C229.277 300.184 229.796 301.432 230.717 302.353C231.638 303.274 232.886 303.793 234.189 303.795H407.979C409.281 303.793 410.53 303.274 411.451 302.353C412.372 301.432 412.89 300.184 412.893 298.881V54.594C412.89 53.2915 412.372 52.0429 411.451 51.1219C410.53 50.2009 409.281 49.6824 407.979 49.68H234.189Z" fill="#EBEBEB" fill-opacity="0.7"/>
<path d="M450 344.16H0V344.385H450V344.16Z" fill="#EBEBEB" fill-opacity="0.7"/>
<path d="M371.484 101.997H73.2686V344.331H371.484V101.997Z" fill="#F5F5F5" fill-opacity="0.6"/>
<path d="M108.495 74.952H62.9463V107.217H108.495V74.952Z" fill="#F0F0F0" fill-opacity="0.7"/>
<path d="M153.774 74.952H108.225V107.217H153.774V74.952Z" fill="#F5F5F5" fill-opacity="0.6"/>
<path d="M199.062 74.952H153.513V107.217H199.062V74.952Z" fill="#F0F0F0" fill-opacity="0.7"/>
<path d="M244.35 74.952H198.801V107.217H244.35V74.952Z" fill="#F5F5F5" fill-opacity="0.6"/>
<path d="M289.629 74.952H244.08V107.217H289.629V74.952Z" fill="#F0F0F0" fill-opacity="0.7"/>
<path d="M334.917 74.952H289.368V107.217H334.917V74.952Z" fill="#F5F5F5" fill-opacity="0.6"/>
<path d="M380.196 74.952H334.647V107.217H380.196V74.952Z" fill="#F0F0F0" fill-opacity="0.7"/>
<path d="M109.872 129.537C109.872 137.412 99.3693 143.802 86.4093 143.802C73.4493 143.802 62.9463 137.412 62.9463 129.537V106.902H108.513L109.872 129.537Z" fill="#E6E6E6" fill-opacity="0.8"/>
<path d="M155.196 129.537C155.196 137.412 144.693 143.802 131.733 143.802C118.773 143.802 108.27 137.412 108.27 129.537V106.902H153.837L155.196 129.537Z" fill="#F0F0F0" fill-opacity="0.7"/>
<path d="M200.52 129.537C200.52 137.412 190.017 143.802 177.057 143.802C164.097 143.802 153.594 137.412 153.594 129.537V106.902H199.161L200.52 129.537Z" fill="#E6E6E6" fill-opacity="0.8"/>
<path d="M245.844 129.537C245.844 137.412 235.341 143.802 222.381 143.802C209.421 143.802 198.9 137.412 198.9 129.537V106.902H244.458L245.844 129.537Z" fill="#F0F0F0" fill-opacity="0.7"/>
<path d="M291.168 129.537C291.168 137.412 280.656 143.802 267.705 143.802C254.754 143.802 244.233 137.412 244.233 129.537V106.902H289.8L291.168 129.537Z" fill="#E6E6E6" fill-opacity="0.8"/>
<path d="M336.492 129.537C336.492 137.412 325.98 143.802 313.02 143.802C300.06 143.802 289.557 137.412 289.557 129.537V106.902H335.124L336.492 129.537Z" fill="#F0F0F0" fill-opacity="0.7"/>
<path d="M381.807 129.537C381.807 137.412 371.304 143.802 358.344 143.802C345.384 143.802 334.881 137.412 334.881 129.537V106.902H380.448L381.807 129.537Z" fill="#E6E6E6" fill-opacity="0.8"/>
<path d="M356.562 154.206H220.572V231.354H356.562V154.206Z" fill="#FAFAFA"/>
<path d="M307.656 231.3H283.041L301.527 154.962H326.142L307.656 231.3Z" fill="#F5F5F5" fill-opacity="0.6"/>
<path d="M319.599 231.3H314.145L332.631 154.962H338.085L319.599 231.3Z" fill="#F5F5F5" fill-opacity="0.6"/>
<path d="M243.765 231.3H241.002L259.488 154.962H262.251L243.765 231.3Z" fill="#F5F5F5" fill-opacity="0.6"/>
<path d="M359.262 234.054H217.872V151.506H359.262V234.054ZM223.272 228.654H353.862V156.906H223.272V228.654Z" fill="#EBEBEB" fill-opacity="0.7"/>
<path d="M170.082 149.598H88.3262V343.647H170.082V149.598Z" fill="#EBEBEB" fill-opacity="0.7"/>
<path d="M166.617 153.117H91.8086V343.656H166.617V153.117Z" fill="#F5F5F5" fill-opacity="0.6"/>
<path d="M127.449 178.254H97.4609V248.031H127.449V178.254Z" fill="#FAFAFA"/>
<path d="M161.343 178.254H131.355V248.031H161.343V178.254Z" fill="#FAFAFA"/>
<path d="M161.343 269.136H97.4609V338.913H161.343V269.136Z" fill="#EBEBEB" fill-opacity="0.7"/>
<path d="M113.022 158.175H145.8C149.919 158.177 153.868 159.813 156.782 162.724C159.696 165.634 161.336 169.582 161.343 173.7V174.6H97.4434V173.7C97.4469 171.658 97.8527 169.636 98.6375 167.751C99.4223 165.865 100.571 164.153 102.018 162.711C103.464 161.269 105.181 160.127 107.069 159.348C108.957 158.57 110.98 158.171 113.022 158.175Z" fill="#FAFAFA"/>
<path d="M102.915 251.172H97.4609V265.383H102.915V251.172Z" fill="#E6E6E6" fill-opacity="0.8"/>
<path d="M102.924 265.383H103.995V251.172H102.924V265.383Z" fill="#E0E0E0" fill-opacity="0.8"/>
<path d="M98.8196 259.065C100.092 259.065 101.124 258.033 101.124 256.761C101.124 255.489 100.092 254.457 98.8196 254.457C97.5472 254.457 96.5156 255.489 96.5156 256.761C96.5156 258.033 97.5472 259.065 98.8196 259.065Z" fill="#E0E0E0" fill-opacity="0.8"/>
<path d="M100.683 260.73H99.4951V263.61H100.683V260.73Z" fill="#E0E0E0" fill-opacity="0.8"/>
<path d="M99.9992 256.761C99.9975 257.396 99.8075 258.016 99.4534 258.544C99.0992 259.071 98.5968 259.481 98.0096 259.723C97.4223 259.965 96.7766 260.027 96.1539 259.902C95.5312 259.777 94.9596 259.47 94.5111 259.021C94.0627 258.571 93.7576 257.998 93.6343 257.375C93.5111 256.752 93.5752 256.107 93.8187 255.52C94.0621 254.934 94.4739 254.432 95.0021 254.08C95.5303 253.727 96.1511 253.539 96.7862 253.539C97.2089 253.539 97.6275 253.622 98.0179 253.784C98.4083 253.946 98.7629 254.184 99.0614 254.483C99.3598 254.782 99.5963 255.138 99.7572 255.529C99.9182 255.919 100 256.338 99.9992 256.761Z" fill="#EBEBEB" fill-opacity="0.7"/>
<path d="M316.53 291.483H311.355V328.833H316.53V291.483Z" fill="#E6E6E6" fill-opacity="0.8"/>
<path d="M365.246 285.012L286.046 301.212L262.646 285.012V269.1H365.246V285.012Z" fill="#EBEBEB" fill-opacity="0.7"/>
<path d="M311.058 320.76C311.06 323.249 310.571 325.713 309.619 328.013C308.667 330.312 307.272 332.402 305.513 334.162C303.753 335.922 301.665 337.318 299.365 338.271C297.066 339.224 294.602 339.714 292.113 339.714C291.798 339.694 291.482 339.739 291.185 339.847C290.888 339.954 290.616 340.12 290.386 340.337C290.155 340.553 289.972 340.814 289.846 341.104C289.721 341.394 289.656 341.707 289.656 342.023C289.656 342.338 289.721 342.651 289.846 342.941C289.972 343.231 290.155 343.492 290.386 343.708C290.616 343.925 290.888 344.091 291.185 344.199C291.482 344.306 291.798 344.351 292.113 344.331H335.781C336.369 344.294 336.92 344.035 337.323 343.606C337.726 343.177 337.95 342.611 337.95 342.023C337.95 341.434 337.726 340.868 337.323 340.439C336.92 340.01 336.369 339.751 335.781 339.714C333.29 339.718 330.823 339.23 328.52 338.279C326.217 337.328 324.124 335.932 322.362 334.172C320.599 332.412 319.2 330.321 318.246 328.02C317.292 325.718 316.8 323.251 316.8 320.76H311.058Z" fill="#E6E6E6" fill-opacity="0.8"/>
<path d="M240.849 256.356C243.108 269.629 244.628 283.018 245.403 296.46L247.518 296.28C246.736 282.75 245.204 269.275 242.928 255.915C241.65 247.293 233.028 240.561 224.784 241.119C222.903 241.259 221.077 241.811 219.434 242.736C217.792 243.662 216.373 244.938 215.28 246.474C214.181 248.046 213.422 249.829 213.048 251.709C212.675 253.59 212.696 255.528 213.111 257.4C215.353 269.45 216.919 281.616 217.8 293.841L219.915 293.706C219.033 281.398 217.468 269.148 215.226 257.013C214.865 255.428 214.839 253.784 215.149 252.188C215.459 250.592 216.098 249.078 217.026 247.743C217.279 247.394 217.552 247.061 217.845 246.744C221.302 262.472 223.595 278.433 224.703 294.498L226.818 294.345C225.681 277.802 223.274 261.37 219.618 245.196C220.973 244.296 222.509 243.703 224.118 243.459C227.983 260.479 230.481 277.781 231.588 295.2L233.703 295.038C232.583 277.636 230.088 260.35 226.242 243.342C228.008 243.369 229.751 243.745 231.372 244.449C235.064 261.358 237.447 278.527 238.5 295.803L240.615 295.632C239.598 278.859 237.339 262.184 233.856 245.745C235.666 246.962 237.217 248.527 238.417 250.348C239.618 252.17 240.444 254.212 240.849 256.356Z" fill="#E0E0E0" fill-opacity="0.8"/>
<path d="M266.4 294.93H217.719C217.721 293.558 218.267 292.243 219.237 291.273C220.207 290.303 221.522 289.757 222.894 289.755H261.243C262.611 289.762 263.922 290.31 264.888 291.28C265.854 292.249 266.397 293.561 266.4 294.93Z" fill="#F0F0F0" fill-opacity="0.7"/>
<path d="M219.375 344.331H216.783L218.898 294.93H222.192L219.375 344.331Z" fill="#E0E0E0" fill-opacity="0.8"/>
<path d="M236.655 344.331H234.072L235.485 294.93H238.779L236.655 344.331Z" fill="#E0E0E0" fill-opacity="0.8"/>
<path d="M250.065 344.331H247.482L245.367 294.93H248.661L250.065 344.331Z" fill="#E0E0E0" fill-opacity="0.8"/>
<path d="M267.354 344.331H264.771L261.945 294.93H265.239L267.354 344.331Z" fill="#E0E0E0" fill-opacity="0.8"/>
<path d="M268.542 293.049H239.607V296.811H268.542V293.049Z" fill="#E6E6E6" fill-opacity="0.8"/>
<path d="M239.598 293.049H215.595V296.811H239.598V293.049Z" fill="#EBEBEB" fill-opacity="0.7"/>
<path d="M371.889 256.356C369.648 269.63 368.145 283.019 367.389 296.46L365.274 296.28C366.055 282.75 367.588 269.275 369.864 255.915C371.133 247.293 379.764 240.561 388.008 241.119C389.887 241.259 391.712 241.811 393.353 242.737C394.994 243.662 396.411 244.938 397.503 246.474C398.591 248.05 399.339 249.836 399.7 251.717C400.061 253.598 400.027 255.533 399.6 257.4C397.375 269.442 395.821 281.599 394.947 293.814L392.841 293.679C393.719 281.371 395.282 269.121 397.521 256.986C397.881 255.401 397.908 253.757 397.598 252.161C397.288 250.565 396.649 249.051 395.721 247.716C395.467 247.365 395.191 247.031 394.893 246.717C391.434 262.444 389.145 278.406 388.044 294.471L385.929 294.318C387.061 277.774 389.468 261.342 393.129 245.169C391.773 244.269 390.238 243.676 388.629 243.432C384.763 260.462 382.262 277.773 381.15 295.2L379.035 295.038C380.157 277.636 382.655 260.35 386.505 243.342C384.736 243.371 382.99 243.747 381.366 244.449C377.67 261.373 375.289 278.557 374.247 295.848L372.132 295.677C373.14 278.888 375.402 262.197 378.9 245.745C377.088 246.962 375.535 248.527 374.331 250.348C373.128 252.17 372.298 254.212 371.889 256.356Z" fill="#E0E0E0" fill-opacity="0.8"/>
<path d="M346.329 294.93H395.019C395.019 293.558 394.474 292.241 393.503 291.271C392.533 290.3 391.217 289.755 389.844 289.755H351.504C350.132 289.755 348.815 290.3 347.845 291.271C346.874 292.241 346.329 293.558 346.329 294.93Z" fill="#F0F0F0" fill-opacity="0.7"/>
<path d="M393.372 344.331H395.955L393.84 294.93H390.546L393.372 344.331Z" fill="#E0E0E0" fill-opacity="0.8"/>
<path d="M376.083 344.331H378.666L377.262 294.93H373.968L376.083 344.331Z" fill="#E0E0E0" fill-opacity="0.8"/>
<path d="M362.673 344.331H365.265L367.38 294.93H364.086L362.673 344.331Z" fill="#E0E0E0" fill-opacity="0.8"/>
<path d="M345.384 344.331H347.976L350.793 294.93H347.499L345.384 344.331Z" fill="#E0E0E0" fill-opacity="0.8"/>
<path d="M344.205 296.811H373.14V293.049H344.205V296.811Z" fill="#E6E6E6" fill-opacity="0.8"/>
<path d="M373.14 296.811H397.143V293.049H373.14V296.811Z" fill="#EBEBEB" fill-opacity="0.7"/>
<path d="M220.662 381.339C317.036 381.339 395.163 376.778 395.163 371.151C395.163 365.524 317.036 360.963 220.662 360.963C124.288 360.963 46.1611 365.524 46.1611 371.151C46.1611 376.778 124.288 381.339 220.662 381.339Z" fill="#F5F5F5" fill-opacity="0.6"/>
<path d="M88.7578 66.816H95.6788C94.0448 66.7965 92.4243 67.1148 90.919 67.751C89.4138 68.3873 88.0562 69.3276 86.9315 70.5132C85.8067 71.6988 84.9391 73.1039 84.383 74.6406C83.8269 76.1773 83.5943 77.8123 83.6998 79.443L94.7158 289.665C94.9417 293.05 96.4339 296.226 98.8954 298.561C101.357 300.896 104.607 302.218 108 302.265H101.079C97.6826 302.231 94.4252 300.913 91.961 298.575C89.4967 296.238 88.0084 293.055 87.7948 289.665L76.7968 79.443C76.6901 77.8135 76.9212 76.1794 77.4758 74.6434C78.0303 73.1074 78.8962 71.7025 80.0193 70.517C81.1423 69.3314 82.4983 68.3906 84.002 67.7538C85.5058 67.1169 87.1249 66.7977 88.7578 66.816Z" fill="#263238"/>
<path opacity="0.3" d="M88.7578 66.816H95.6788C94.0448 66.7965 92.4243 67.1148 90.919 67.751C89.4138 68.3873 88.0562 69.3276 86.9315 70.5132C85.8067 71.6988 84.9391 73.1039 84.383 74.6406C83.8269 76.1773 83.5943 77.8123 83.6998 79.443L94.7158 289.665C94.9417 293.05 96.4339 296.226 98.8954 298.561C101.357 300.896 104.607 302.218 108 302.265H101.079C97.6826 302.231 94.4252 300.913 91.961 298.575C89.4967 296.238 88.0084 293.055 87.7948 289.665L76.7968 79.443C76.6901 77.8135 76.9212 76.1794 77.4758 74.6434C78.0303 73.1074 78.8962 71.7025 80.0193 70.517C81.1423 69.3314 82.4983 68.3906 84.002 67.7538C85.5058 67.1169 87.1249 66.7977 88.7578 66.816Z" fill="white"/>
<path d="M104.958 302.283H189.756C191.386 302.3 193.002 301.98 194.503 301.345C196.004 300.709 197.358 299.771 198.481 298.588C199.603 297.406 200.47 296.005 201.027 294.473C201.583 292.941 201.818 291.31 201.717 289.683L190.701 79.443C190.475 76.0578 188.983 72.8818 186.521 70.547C184.06 68.2122 180.809 66.8898 177.417 66.843H92.6188C90.9886 66.8263 89.3725 67.1457 87.8714 67.7814C86.3702 68.4171 85.0161 69.3554 83.8938 70.5377C82.7714 71.72 81.9048 73.121 81.348 74.6532C80.7912 76.1854 80.5563 77.816 80.6578 79.443L91.6738 289.665C91.8953 293.053 93.3856 296.234 95.8476 298.572C98.3096 300.911 101.562 302.236 104.958 302.283Z" fill="#263238"/>
<path d="M197.37 289.872L186.354 79.65C186.204 77.2903 185.169 75.0742 183.455 73.4454C181.741 71.8166 179.475 70.8953 177.111 70.866H159.831L160.056 75.222C160.093 75.7428 160.022 76.2658 159.846 76.7576C159.671 77.2493 159.395 77.6992 159.036 78.0785C158.677 78.4577 158.243 78.7581 157.761 78.9605C157.28 79.1629 156.762 79.2628 156.24 79.254H115.299C114.149 79.2559 113.042 78.8178 112.206 78.0295C111.369 77.2413 110.865 76.1626 110.799 75.015L110.583 70.866H92.3217C91.2417 70.85 90.1701 71.0578 89.1744 71.4765C88.1787 71.8951 87.2805 72.5155 86.5365 73.2984C85.7924 74.0814 85.2186 75.01 84.8512 76.0257C84.4837 77.0414 84.3307 78.1222 84.4017 79.2L95.3997 289.449C95.5492 291.809 96.5847 294.025 98.2986 295.654C100.012 297.282 102.278 298.204 104.643 298.233H189.45C190.533 298.252 191.608 298.045 192.607 297.626C193.606 297.207 194.507 296.584 195.252 295.797C195.997 295.011 196.57 294.078 196.934 293.058C197.299 292.037 197.447 290.953 197.37 289.872Z" fill="#5371FF"/>
<path opacity="0.1" d="M197.37 289.872L186.354 79.65C186.204 77.2903 185.169 75.0742 183.455 73.4454C181.741 71.8166 179.475 70.8953 177.111 70.866H159.831L160.056 75.222C160.093 75.7428 160.022 76.2658 159.846 76.7576C159.671 77.2493 159.395 77.6992 159.036 78.0785C158.677 78.4577 158.243 78.7581 157.761 78.9605C157.28 79.1629 156.762 79.2628 156.24 79.254H115.299C114.149 79.2559 113.042 78.8178 112.206 78.0295C111.369 77.2413 110.865 76.1626 110.799 75.015L110.583 70.866H92.3217C91.2417 70.85 90.1701 71.0578 89.1744 71.4765C88.1787 71.8951 87.2805 72.5155 86.5365 73.2984C85.7924 74.0814 85.2186 75.01 84.8512 76.0257C84.4837 77.0414 84.3307 78.1222 84.4017 79.2L95.3997 289.449C95.5492 291.809 96.5847 294.025 98.2986 295.654C100.012 297.282 102.278 298.204 104.643 298.233H189.45C190.533 298.252 191.608 298.045 192.607 297.626C193.606 297.207 194.507 296.584 195.252 295.797C195.997 295.011 196.57 294.078 196.934 293.058C197.299 292.037 197.447 290.953 197.37 289.872Z" fill="black"/>
<g opacity="0.8">
<path d="M173.492 227.466H113.336C110.375 227.466 109.736 222.867 112.697 222.867H172.853C175.814 222.867 176.453 227.466 173.492 227.466Z" fill="white"/>
<path d="M165.077 239.013H113.939C110.978 239.013 110.339 234.414 113.3 234.414H164.438C167.399 234.414 168.038 239.013 165.077 239.013Z" fill="white"/>
<path d="M172.242 250.56H114.552C111.591 250.56 110.952 245.961 113.904 245.961H171.594C174.564 245.961 175.194 250.56 172.242 250.56Z" fill="white"/>
<path d="M155.465 262.107H115.199C112.238 262.107 111.599 257.508 114.551 257.508H154.799C157.76 257.508 158.399 262.107 155.447 262.107H155.465Z" fill="white"/>
</g>
<g opacity="0.8">
<path d="M107.252 101.286L105.452 107.748H103.85L102.194 103.374L100.961 107.748H99.3593L96.9023 101.286H98.4503L100.151 105.786L101.429 101.286H102.815L104.534 105.867L105.803 101.286H107.252Z" fill="white"/>
<path d="M113.399 106.551L113.462 107.748H108.458L108.116 101.286H113.003L113.066 102.483H109.664L109.736 103.887H112.742L112.805 105.048H109.799L109.88 106.551H113.399Z" fill="white"/>
<path d="M121.409 106.362H118.412L117.908 107.748H116.378L118.925 101.286H120.401L123.623 107.748H122.057L121.409 106.362ZM120.878 105.228L119.699 102.753L118.799 105.228H120.878Z" fill="white"/>
<path d="M128.421 107.748L127.08 105.948H125.703L125.802 107.748H124.299L123.966 101.286H126.765C127.281 101.273 127.793 101.371 128.268 101.574C128.68 101.739 129.034 102.022 129.287 102.387C129.539 102.752 129.68 103.182 129.69 103.626C129.731 104.059 129.633 104.494 129.411 104.868C129.199 105.22 128.885 105.5 128.511 105.669L130.077 107.748H128.421ZM127.782 102.798C127.478 102.582 127.11 102.477 126.738 102.501H125.523L125.64 104.76H126.9C127.261 104.787 127.619 104.682 127.908 104.463C128.021 104.358 128.108 104.227 128.161 104.081C128.215 103.936 128.233 103.78 128.214 103.626C128.212 103.466 128.173 103.308 128.102 103.165C128.03 103.021 127.927 102.896 127.8 102.798H127.782Z" fill="white"/>
<path d="M136.034 106.551L136.097 107.748H131.084L130.751 101.286H135.638L135.701 102.483H132.299L132.371 103.887H135.377L135.431 105.048H132.434L132.515 106.551H136.034Z" fill="white"/>
<path d="M145.484 101.286L145.826 107.748H144.332L144.188 105.102H141.299L141.434 107.748H139.94L139.607 101.286H141.101L141.236 103.833H144.17L144.035 101.286H145.484Z" fill="white"/>
<path d="M147.023 101.286H148.499L148.832 107.748H147.338L147.023 101.286Z" fill="white"/>
<path d="M154.502 107.748L153.161 105.948H151.793L151.883 107.748H150.389L150.047 101.286H152.846C153.362 101.273 153.874 101.371 154.349 101.574C154.757 101.743 155.11 102.024 155.366 102.384C155.621 102.749 155.765 103.181 155.78 103.626C155.813 104.06 155.713 104.493 155.492 104.868C155.283 105.223 154.968 105.503 154.592 105.669L156.149 107.748H154.502ZM153.863 102.798C153.563 102.582 153.197 102.477 152.828 102.501H151.604L151.73 104.76H152.945C153.306 104.787 153.664 104.682 153.953 104.463C154.066 104.358 154.153 104.227 154.206 104.081C154.26 103.936 154.278 103.78 154.259 103.626C154.265 103.47 154.236 103.314 154.174 103.171C154.112 103.027 154.018 102.9 153.899 102.798H153.863Z" fill="white"/>
<path d="M156.833 101.286H158.327L158.669 107.748H157.175L156.833 101.286Z" fill="white"/>
<path d="M165.788 101.286L166.13 107.748H164.906L161.477 103.824L161.684 107.748H160.199L159.866 101.286H161.099L164.519 105.21L164.312 101.286H165.788Z" fill="white"/>
<path d="M171.899 104.4H173.267L173.402 107.019C173.049 107.292 172.65 107.499 172.223 107.631C171.774 107.766 171.307 107.836 170.837 107.838C170.212 107.84 169.596 107.695 169.037 107.415C168.499 107.138 168.043 106.726 167.714 106.218C167.38 105.705 167.191 105.111 167.165 104.499C167.126 103.903 167.253 103.307 167.534 102.78C167.811 102.272 168.23 101.856 168.74 101.583C169.295 101.293 169.914 101.148 170.54 101.16C171.072 101.152 171.601 101.247 172.097 101.439C172.556 101.625 172.968 101.911 173.303 102.276L172.403 103.176C172.182 102.945 171.917 102.762 171.623 102.637C171.329 102.511 171.013 102.447 170.693 102.447C170.314 102.44 169.939 102.53 169.604 102.708C169.298 102.872 169.049 103.126 168.893 103.437C168.726 103.771 168.654 104.145 168.686 104.517C168.699 104.896 168.81 105.266 169.01 105.588C169.199 105.901 169.47 106.156 169.793 106.326C170.132 106.503 170.509 106.592 170.891 106.587C171.29 106.596 171.684 106.5 172.034 106.308L171.899 104.4Z" fill="white"/>
<path d="M174.716 107.577C174.63 107.503 174.559 107.413 174.51 107.31C174.46 107.208 174.432 107.097 174.428 106.983C174.421 106.876 174.436 106.768 174.473 106.667C174.51 106.566 174.569 106.475 174.644 106.398C174.728 106.318 174.827 106.256 174.935 106.216C175.043 106.176 175.159 106.158 175.274 106.164C175.392 106.159 175.51 106.176 175.621 106.217C175.733 106.257 175.835 106.318 175.922 106.398C176.006 106.471 176.075 106.561 176.123 106.661C176.171 106.762 176.197 106.872 176.201 106.983C176.209 107.093 176.193 107.202 176.154 107.305C176.115 107.407 176.055 107.5 175.976 107.577C175.897 107.658 175.801 107.721 175.696 107.763C175.59 107.805 175.477 107.824 175.364 107.82C175.246 107.824 175.127 107.805 175.016 107.763C174.905 107.722 174.803 107.658 174.716 107.577ZM174.158 101.277H175.877L175.814 105.498H174.662L174.158 101.277Z" fill="white"/>
</g>
<path opacity="0.8" d="M137.556 119.484L144.252 125.262L152.595 123.453L155.664 131.661L164.016 134.307L162.648 142.74L168.768 149.139L163.314 155.529L165.573 163.962L157.5 166.608L155.286 174.816L146.754 173.007L140.661 178.794L133.965 173.007L125.631 174.816L122.553 166.608L114.201 163.962L115.578 155.529L109.458 149.139L114.903 142.74L112.653 134.307L120.717 131.661L122.94 123.453L131.463 125.262L137.556 119.484Z" fill="white"/>
<path d="M140.922 150.435H137.43L137.133 144.747H140.625L140.922 150.435Z" fill="#263238"/>
<path opacity="0.2" d="M140.922 150.435H137.43L137.133 144.747H140.625L140.922 150.435Z" fill="white"/>
<path d="M123.659 149.643L123.119 139.392H121.148L121.706 150.192C121.738 150.741 121.894 151.275 122.164 151.754C122.434 152.233 122.81 152.644 123.263 152.955L126.863 155.43L126.746 153.153L125.936 152.82C125.295 152.56 124.741 152.124 124.337 151.562C123.934 150.999 123.699 150.334 123.659 149.643Z" fill="#263238"/>
<path opacity="0.2" d="M123.659 149.643L123.119 139.392H121.148L121.706 150.192C121.738 150.741 121.894 151.275 122.164 151.754C122.434 152.233 122.81 152.644 123.263 152.955L126.863 155.43L126.746 153.153L125.936 152.82C125.295 152.56 124.741 152.124 124.337 151.562C123.934 150.999 123.699 150.334 123.659 149.643Z" fill="white"/>
<path d="M154.611 149.643L154.08 139.392H156.051L156.618 150.192C156.65 150.722 156.551 151.251 156.33 151.733C156.108 152.215 155.771 152.635 155.349 152.955L152.046 155.43L151.929 153.153L152.703 152.82C153.311 152.553 153.821 152.105 154.163 151.535C154.504 150.966 154.661 150.305 154.611 149.643Z" fill="#263238"/>
<path opacity="0.2" d="M154.611 149.643L154.08 139.392H156.051L156.618 150.192C156.65 150.722 156.551 151.251 156.33 151.733C156.108 152.215 155.771 152.635 155.349 152.955L152.046 155.43L151.929 153.153L152.703 152.82C153.311 152.553 153.821 152.105 154.163 151.535C154.504 150.966 154.661 150.305 154.611 149.643Z" fill="white"/>
<path d="M160.02 175.5L141.939 169.875L141.3 158.076H137.808L138.42 169.839L120.96 175.5C120.82 175.546 120.698 175.637 120.615 175.759C120.532 175.881 120.492 176.028 120.501 176.175C120.507 176.283 120.536 176.388 120.586 176.484C120.636 176.579 120.706 176.663 120.792 176.729C120.877 176.795 120.976 176.841 121.081 176.865C121.186 176.889 121.296 176.89 121.401 176.868L139.167 172.449L139.617 176.229C139.644 176.462 139.754 176.678 139.928 176.835C140.102 176.993 140.328 177.081 140.562 177.084C140.793 177.084 141.016 176.996 141.183 176.837C141.351 176.677 141.451 176.46 141.462 176.229V172.449L159.696 176.868C159.799 176.896 159.907 176.898 160.011 176.876C160.115 176.853 160.212 176.806 160.294 176.738C160.376 176.67 160.44 176.583 160.482 176.486C160.524 176.388 160.541 176.281 160.533 176.175C160.525 176.024 160.472 175.879 160.38 175.759C160.289 175.639 160.163 175.548 160.02 175.5Z" fill="#263238"/>
<path opacity="0.2" d="M160.02 175.5L141.939 169.875L141.3 158.076H137.808L138.42 169.839L120.96 175.5C120.82 175.546 120.698 175.637 120.615 175.759C120.532 175.881 120.492 176.028 120.501 176.175C120.507 176.283 120.536 176.388 120.586 176.484C120.636 176.579 120.706 176.663 120.792 176.729C120.877 176.795 120.976 176.841 121.081 176.865C121.186 176.889 121.296 176.89 121.401 176.868L139.167 172.449L139.617 176.229C139.644 176.462 139.754 176.678 139.928 176.835C140.102 176.993 140.328 177.081 140.562 177.084C140.793 177.084 141.016 176.996 141.183 176.837C141.351 176.677 141.451 176.46 141.462 176.229V172.449L159.696 176.868C159.799 176.896 159.907 176.898 160.011 176.876C160.115 176.853 160.212 176.806 160.294 176.738C160.376 176.67 160.44 176.583 160.482 176.486C160.524 176.388 160.541 176.281 160.533 176.175C160.525 176.024 160.472 175.879 160.38 175.759C160.289 175.639 160.163 175.548 160.02 175.5Z" fill="white"/>
<path d="M122.121 178.47C122.134 178.664 122.106 178.858 122.04 179.041C121.974 179.223 121.871 179.39 121.737 179.531C121.604 179.672 121.443 179.784 121.264 179.86C121.086 179.936 120.893 179.975 120.699 179.973C120.295 179.967 119.907 179.809 119.614 179.531C119.32 179.252 119.142 178.874 119.115 178.47C119.103 178.276 119.13 178.082 119.197 177.9C119.263 177.717 119.365 177.55 119.499 177.409C119.632 177.268 119.793 177.156 119.972 177.08C120.151 177.004 120.343 176.965 120.537 176.967C120.942 176.971 121.331 177.128 121.625 177.407C121.919 177.686 122.096 178.066 122.121 178.47Z" fill="#263238"/>
<path d="M142.146 178.47C142.158 178.664 142.131 178.858 142.065 179.041C141.999 179.223 141.896 179.39 141.762 179.531C141.629 179.672 141.468 179.784 141.289 179.86C141.111 179.936 140.918 179.975 140.724 179.973C140.319 179.967 139.932 179.809 139.639 179.531C139.345 179.252 139.167 178.874 139.14 178.47C139.129 178.276 139.158 178.081 139.225 177.899C139.292 177.716 139.396 177.549 139.53 177.409C139.664 177.268 139.826 177.156 140.005 177.08C140.184 177.004 140.376 176.966 140.571 176.967C140.975 176.971 141.363 177.128 141.655 177.408C141.948 177.687 142.123 178.066 142.146 178.47Z" fill="#263238"/>
<path d="M162.18 178.47C162.192 178.665 162.164 178.86 162.098 179.043C162.031 179.226 161.927 179.393 161.793 179.535C161.659 179.676 161.496 179.788 161.317 179.863C161.137 179.938 160.944 179.976 160.749 179.973C160.345 179.969 159.957 179.812 159.664 179.533C159.372 179.254 159.197 178.874 159.174 178.47C159.161 178.276 159.189 178.082 159.255 177.9C159.321 177.717 159.424 177.55 159.557 177.409C159.691 177.268 159.852 177.156 160.031 177.08C160.209 177.004 160.402 176.965 160.596 176.967C161 176.973 161.388 177.131 161.681 177.409C161.975 177.688 162.153 178.066 162.18 178.47Z" fill="#263238"/>
<path d="M124.731 138.654C124.785 139.653 123.192 140.175 121.185 140.175C119.178 140.175 117.531 139.653 117.477 138.654C117.423 137.655 119.052 137.709 121.077 137.709C123.102 137.709 124.686 137.7 124.731 138.654Z" fill="#263238"/>
<path d="M152.388 138.654C152.442 139.653 154.089 140.175 156.096 140.175C158.103 140.175 159.696 139.653 159.642 138.654C159.588 137.655 157.968 137.709 155.961 137.709C153.954 137.709 152.334 137.7 152.388 138.654Z" fill="#263238"/>
<path d="M154.8 152.28C155.025 156.555 148.194 158.787 139.626 158.787C131.058 158.787 123.993 156.555 123.768 152.28C123.543 148.005 130.5 148.248 139.068 148.248C147.636 148.248 154.566 148.005 154.8 152.28Z" fill="#263238"/>
<path d="M141.948 145.971C144.387 145.251 149.697 144.333 150.426 141.903C151.857 137.187 148.32 124.092 144.675 120.456C143.564 119.601 142.285 118.987 140.922 118.656C138.675 118.161 136.347 118.161 134.1 118.656C132.779 118.974 131.548 119.59 130.5 120.456C127.242 124.056 125.1 137.187 126.999 141.903C127.98 144.333 133.389 145.251 135.9 145.971C137.877 146.536 139.972 146.536 141.948 145.971Z" fill="#263238"/>
<path opacity="0.8" d="M174.644 210.645H110.024C108.351 210.628 106.746 209.978 105.532 208.826C104.319 207.674 103.586 206.105 103.481 204.435L103.148 198.135C103.098 197.333 103.213 196.529 103.487 195.774C103.761 195.018 104.188 194.327 104.741 193.744C105.295 193.161 105.962 192.699 106.703 192.386C107.443 192.073 108.24 191.916 109.043 191.925H173.699C175.373 191.942 176.978 192.592 178.191 193.744C179.405 194.896 180.138 196.465 180.242 198.135L180.575 204.435C180.627 205.24 180.51 206.047 180.234 206.805C179.958 207.563 179.527 208.256 178.97 208.839C178.413 209.423 177.741 209.884 176.996 210.195C176.252 210.506 175.451 210.659 174.644 210.645Z" fill="white"/>
<path d="M114.381 203.4H111.051L110.493 204.939H108.792L111.618 197.739H113.256L116.856 204.939H115.11L114.381 203.4ZM113.796 202.14L112.5 199.341L111.51 202.095L113.796 202.14Z" fill="#5371FF"/>
<path d="M121.995 198C122.454 198.186 122.849 198.503 123.13 198.911C123.412 199.318 123.568 199.8 123.579 200.295C123.617 200.774 123.51 201.254 123.273 201.672C123.032 202.074 122.669 202.389 122.238 202.572C121.72 202.792 121.162 202.899 120.6 202.887H119.151L119.25 204.867H117.594L117.216 197.667H120.321C120.896 197.662 121.466 197.775 121.995 198ZM121.554 201.213C121.679 201.102 121.775 200.961 121.835 200.805C121.894 200.648 121.915 200.48 121.896 200.313C121.892 200.14 121.851 199.97 121.775 199.814C121.699 199.659 121.589 199.522 121.455 199.413C121.118 199.18 120.711 199.069 120.303 199.098H118.953L119.079 201.591H120.438C120.84 201.614 121.237 201.489 121.554 201.24V201.213Z" fill="#5371FF"/>
<path d="M129.402 198C129.861 198.186 130.256 198.503 130.537 198.911C130.819 199.318 130.975 199.8 130.986 200.295C131.024 200.774 130.917 201.254 130.68 201.672C130.439 202.074 130.077 202.389 129.645 202.572C129.128 202.792 128.569 202.899 128.007 202.887H126.558L126.666 204.867H125.001L124.623 197.667H127.728C128.303 197.662 128.873 197.775 129.402 198ZM128.961 201.213C129.086 201.102 129.182 200.961 129.242 200.805C129.302 200.648 129.322 200.48 129.303 200.313C129.299 200.141 129.259 199.971 129.185 199.816C129.11 199.661 129.003 199.524 128.871 199.413C128.532 199.178 128.122 199.067 127.71 199.098H126.36L126.486 201.591H127.845C128.247 201.614 128.644 201.489 128.961 201.24V201.213Z" fill="#5371FF"/>
<path d="M132.03 197.712H133.695L134.001 203.544H137.601L137.673 204.894H132.408L132.03 197.712Z" fill="#5371FF"/>
<path d="M141.183 202.347L141.318 204.894H139.653L139.518 202.329L136.494 197.712H138.294L140.382 200.907L142.137 197.712H143.766L141.183 202.347Z" fill="#5371FF"/>
<path d="M153.9 197.712L154.278 204.912H152.91L149.103 200.556L149.328 204.912H147.69L147.312 197.712H148.689L152.487 202.077L152.253 197.712H153.9Z" fill="#5371FF"/>
<path d="M157.437 204.534C156.839 204.225 156.33 203.766 155.961 203.202C155.592 202.635 155.384 201.979 155.358 201.303C155.312 200.644 155.452 199.986 155.763 199.404C156.071 198.838 156.537 198.375 157.104 198.072C157.714 197.74 158.399 197.572 159.093 197.586C159.801 197.577 160.5 197.744 161.127 198.072C161.726 198.381 162.234 198.84 162.603 199.404C162.975 199.97 163.187 200.626 163.215 201.303C163.263 201.963 163.119 202.622 162.801 203.202C162.492 203.763 162.03 204.225 161.469 204.534C160.859 204.865 160.174 205.032 159.48 205.02C158.77 205.028 158.068 204.861 157.437 204.534ZM160.542 203.31C160.871 203.116 161.136 202.832 161.307 202.491C161.486 202.122 161.563 201.712 161.532 201.303C161.512 200.885 161.392 200.477 161.181 200.115C160.962 199.765 160.651 199.482 160.281 199.296C159.925 199.104 159.525 199.005 159.12 199.008C158.724 199.003 158.332 199.102 157.986 199.296C157.658 199.49 157.392 199.774 157.221 200.115C157.043 200.484 156.966 200.894 156.996 201.303C157.007 201.723 157.128 202.133 157.347 202.491C157.554 202.833 157.845 203.115 158.193 203.31C158.552 203.505 158.955 203.604 159.363 203.598C159.776 203.616 160.185 203.516 160.542 203.31Z" fill="#5371FF"/>
<path d="M174.897 197.712L172.926 204.912H171.126L169.326 200.052L167.949 204.912H166.149L163.449 197.712H165.177L167.058 202.761L168.489 197.712H170.028L171.936 202.797L173.34 197.712H174.897Z" fill="#5371FF"/>
<path opacity="0.2" d="M101.511 297.657C102.518 298.036 103.585 298.231 104.661 298.233H146.511L188.37 118.152L186.354 79.6501C186.204 77.2904 185.169 75.0743 183.455 73.4455C181.741 71.8167 179.475 70.8954 177.111 70.8661H159.831L160.056 75.2221C160.093 75.7429 160.022 76.2659 159.846 76.7577C159.671 77.2495 159.395 77.6993 159.036 78.0786C158.677 78.4578 158.243 78.7582 157.761 78.9606C157.28 79.163 156.762 79.2629 156.24 79.2541H152.28L101.511 297.657Z" fill="white"/>
<path opacity="0.2" d="M157.23 298.233L190.341 155.781L189.216 134.208L151.083 298.233H157.23Z" fill="white"/>
<path d="M359.793 367.614L331.596 360.729V247.77H324.117V360.729L295.911 367.614C295.491 367.706 295.124 367.961 294.892 368.323C294.66 368.685 294.581 369.124 294.673 369.545C294.765 369.965 295.02 370.331 295.382 370.563C295.744 370.795 296.184 370.874 296.604 370.782L327.852 364.851L359.1 370.8C359.52 370.891 359.959 370.811 360.32 370.578C360.681 370.345 360.935 369.978 361.026 369.558C361.116 369.138 361.037 368.699 360.804 368.338C360.571 367.977 360.204 367.723 359.784 367.632L359.793 367.614Z" fill="#263238"/>
<g opacity="0.2">
<path d="M359.793 367.614L331.596 360.729V247.77H324.117V360.729L295.911 367.614C295.491 367.706 295.124 367.961 294.892 368.323C294.66 368.685 294.581 369.124 294.673 369.545C294.765 369.965 295.02 370.331 295.382 370.563C295.744 370.795 296.184 370.874 296.604 370.782L327.852 364.851L359.1 370.8C359.52 370.891 359.959 370.811 360.32 370.578C360.681 370.345 360.935 369.978 361.026 369.558C361.116 369.138 361.037 368.699 360.804 368.338C360.571 367.977 360.204 367.723 359.784 367.632L359.793 367.614Z" fill="white"/>
</g>
<path d="M342.378 253.341C342.378 253.341 331.506 254.88 327.852 254.88C324.198 254.88 313.335 253.341 313.335 253.341C312.65 253.268 312.016 252.945 311.554 252.433C311.093 251.922 310.836 251.258 310.833 250.569H344.871C344.868 251.257 344.613 251.919 344.153 252.431C343.693 252.942 343.062 253.266 342.378 253.341Z" fill="#263238"/>
<path opacity="0.3" d="M342.378 253.341C342.378 253.341 331.506 254.88 327.852 254.88C324.198 254.88 313.335 253.341 313.335 253.341C312.65 253.268 312.016 252.945 311.554 252.433C311.093 251.922 310.836 251.258 310.833 250.569H344.871C344.868 251.257 344.613 251.919 344.153 252.431C343.693 252.942 343.062 253.266 342.378 253.341Z" fill="white"/>
<path d="M365.157 250.74H290.547C289.759 250.74 289.004 250.427 288.447 249.87C287.89 249.313 287.577 248.558 287.577 247.77C287.577 246.982 287.89 246.227 288.447 245.67C289.004 245.113 289.759 244.8 290.547 244.8H365.157C365.547 244.8 365.933 244.877 366.294 245.026C366.654 245.175 366.981 245.394 367.257 245.67C367.533 245.946 367.752 246.273 367.901 246.633C368.05 246.994 368.127 247.38 368.127 247.77C368.127 248.16 368.05 248.546 367.901 248.907C367.752 249.267 367.533 249.594 367.257 249.87C366.981 250.146 366.654 250.365 366.294 250.514C365.933 250.663 365.547 250.74 365.157 250.74Z" fill="#5371FF"/>
<path opacity="0.4" d="M365.157 250.74H290.547C289.759 250.74 289.004 250.427 288.447 249.87C287.89 249.313 287.577 248.558 287.577 247.77C287.577 246.982 287.89 246.227 288.447 245.67C289.004 245.113 289.759 244.8 290.547 244.8H365.157C365.547 244.8 365.933 244.877 366.294 245.026C366.654 245.175 366.981 245.394 367.257 245.67C367.533 245.946 367.752 246.273 367.901 246.633C368.05 246.994 368.127 247.38 368.127 247.77C368.127 248.16 368.05 248.546 367.901 248.907C367.752 249.267 367.533 249.594 367.257 249.87C366.981 250.146 366.654 250.365 366.294 250.514C365.933 250.663 365.547 250.74 365.157 250.74Z" fill="white"/>
<path d="M333.621 244.467H322.515L321.615 216.855H334.521L333.621 244.467Z" fill="#5371FF"/>
<path opacity="0.7" d="M333.621 244.467H322.515L321.615 216.855H334.521L333.621 244.467Z" fill="white"/>
<path d="M335.718 217.836H320.418L321.318 215.217H334.818L335.718 217.836Z" fill="#5371FF"/>
<path d="M333.99 234.828L334.224 226.944H321.912L322.146 234.828H333.99Z" fill="#5371FF"/>
<path opacity="0.8" d="M330.615 230.886C330.615 231.39 330.466 231.882 330.186 232.301C329.906 232.72 329.508 233.046 329.043 233.239C328.577 233.432 328.065 233.482 327.571 233.384C327.077 233.286 326.623 233.043 326.267 232.687C325.911 232.331 325.668 231.877 325.57 231.383C325.472 230.889 325.522 230.377 325.715 229.911C325.908 229.446 326.234 229.048 326.653 228.768C327.072 228.488 327.564 228.339 328.068 228.339C328.743 228.339 329.391 228.607 329.869 229.085C330.347 229.563 330.615 230.21 330.615 230.886Z" fill="white"/>
<path d="M273.753 209.916L275.094 213.903C275.283 214.461 274.248 218.493 274.644 219.465L277.046 224.505C277.371 225.071 277.898 225.493 278.523 225.684C279.522 225.826 280.542 225.643 281.43 225.162L282.717 224.487C283.036 224.327 283.301 224.076 283.477 223.765C283.654 223.454 283.734 223.097 283.707 222.741C283.59 220.995 283.707 217.674 283.311 216.441C283.222 216.128 283.051 215.845 282.815 215.622L280.926 213.822C280.656 213.521 280.461 213.16 280.359 212.769L279.153 208.269C279.054 207.904 278.876 207.566 278.632 207.277C278.387 206.989 278.082 206.758 277.739 206.601C277.395 206.444 277.021 206.364 276.643 206.368C276.265 206.371 275.893 206.458 275.553 206.622L275.085 206.856C274.534 207.123 274.097 207.579 273.853 208.14C273.609 208.701 273.573 209.331 273.753 209.916Z" fill="#FF8B7B"/>
<path d="M193.995 193.806L187.695 195.102C187.592 195.19 187.47 195.252 187.338 195.281C187.206 195.311 187.069 195.308 186.939 195.273L178.839 193.014C178.664 192.952 178.473 192.952 178.299 193.014L171.549 195.921C171.363 196.001 171.214 196.148 171.132 196.334C171.05 196.519 171.041 196.729 171.108 196.92C171.176 197.114 171.315 197.275 171.497 197.37C171.679 197.466 171.891 197.488 172.089 197.433L175.5 196.47C175.664 196.419 175.84 196.422 176.002 196.479C176.164 196.536 176.303 196.643 176.4 196.785L179.406 201.132C179.473 201.226 179.559 201.305 179.658 201.364C179.757 201.423 179.867 201.46 179.982 201.474L183.411 201.843C183.517 201.87 183.629 201.87 183.735 201.843L189.945 199.872C190.035 199.845 190.121 199.802 190.197 199.746L196.119 199.062C196.204 198.995 196.276 198.911 196.328 198.815C196.381 198.72 196.413 198.615 196.424 198.506C196.435 198.398 196.424 198.289 196.392 198.185C196.359 198.081 196.306 197.984 196.236 197.901L195.129 193.842C195.057 193.765 194.97 193.703 194.874 193.66C194.778 193.616 194.675 193.592 194.569 193.589C194.464 193.585 194.359 193.603 194.26 193.64C194.162 193.677 194.072 193.734 193.995 193.806Z" fill="#FF8B7B"/>
<path d="M220.698 193.023C220.221 198.504 191.07 200.799 191.07 200.799L189.711 193.725L211.392 187.137C206.595 156.789 217.179 155.538 217.179 155.538C217.179 155.538 222.246 174.96 220.698 193.023Z" fill="#5371FF"/>
<g opacity="0.6">
<path d="M220.698 193.023C220.221 198.504 191.07 200.799 191.07 200.799L189.711 193.725L211.392 187.137C206.595 156.789 217.179 155.538 217.179 155.538C217.179 155.538 222.246 174.96 220.698 193.023Z" fill="white"/>
</g>
<path d="M225.899 349.02L226.592 365.643L233.459 365.355L234.404 348.66L225.899 349.02Z" fill="#FF8B7B"/>
<path opacity="0.2" d="M226.251 357.525L233.928 357.201L234.405 348.66L225.891 349.02L226.251 357.525Z" fill="#263238"/>
<path d="M218.916 212.166L225 356.04L234.9 355.617C234.9 355.617 240.192 323.1 239.004 301.176C238.878 298.908 238.104 293.22 238.275 291.276C238.603 288.414 239.144 285.58 239.895 282.798C242.298 272.709 244.539 255.267 243.18 242.199C243.18 242.199 256.113 228.375 252.666 210.699L218.916 212.166Z" fill="#5371FF"/>
<path opacity="0.2" d="M244.286 240.876L241.001 233.676L238.499 234.837C238.499 234.837 238.229 245.898 242.594 266.715C243.627 258.59 243.814 250.38 243.152 242.217C243.152 242.217 243.593 241.749 244.286 240.876Z" fill="black"/>
<path d="M222.543 363.168C221.517 363.168 220.437 363.024 220.086 362.592C219.998 362.467 219.951 362.317 219.951 362.165C219.951 362.012 219.998 361.862 220.086 361.737C220.15 361.622 220.236 361.52 220.339 361.438C220.443 361.356 220.562 361.296 220.689 361.26C222.066 360.846 225.009 362.43 225.135 362.502C225.171 362.519 225.2 362.548 225.218 362.584C225.236 362.62 225.242 362.661 225.234 362.7C225.229 362.741 225.212 362.779 225.184 362.81C225.157 362.841 225.121 362.862 225.081 362.871C224.245 363.042 223.395 363.141 222.543 363.168ZM221.184 361.584C221.059 361.584 220.934 361.602 220.815 361.638C220.732 361.652 220.654 361.686 220.586 361.736C220.519 361.786 220.465 361.851 220.428 361.926C220.293 362.169 220.347 362.286 220.428 362.349C220.824 362.88 222.921 362.844 224.46 362.619C223.444 362.067 222.332 361.716 221.184 361.584Z" fill="#5371FF"/>
<path d="M225.044 362.862H224.999C224 362.439 221.957 360.693 222.119 359.748C222.119 359.523 222.29 359.244 222.83 359.181C223.026 359.156 223.225 359.17 223.415 359.223C223.605 359.275 223.782 359.365 223.937 359.487C225.017 360.333 225.287 362.574 225.305 362.673C225.31 362.709 225.304 362.745 225.288 362.777C225.272 362.809 225.247 362.835 225.215 362.853C225.19 362.869 225.161 362.879 225.131 362.88C225.101 362.882 225.071 362.876 225.044 362.862ZM222.938 359.55H222.821C222.47 359.595 222.452 359.73 222.434 359.784C222.434 360.351 223.739 361.728 224.783 362.313C224.667 361.373 224.262 360.492 223.622 359.793C223.432 359.632 223.188 359.548 222.938 359.559V359.55Z" fill="#5371FF"/>
<path d="M225.9 361.683L234.963 361.467C235.129 361.464 235.292 361.518 235.424 361.619C235.557 361.72 235.651 361.863 235.692 362.025L237.492 369.36C237.567 369.675 237.515 370.007 237.347 370.284C237.178 370.561 236.906 370.759 236.592 370.836H236.34C233.073 370.836 230.157 370.746 226.089 370.836C221.292 370.953 222.489 371.502 216.882 371.736C213.48 371.862 212.769 368.01 214.182 367.785C220.761 366.795 221.382 364.788 223.893 362.385C224.449 361.907 225.166 361.656 225.9 361.683Z" fill="#263238"/>
<path d="M275.651 348.237L280.439 364.176L287.027 362.196L283.814 345.78L275.651 348.237Z" fill="#FF8B7B"/>
<path opacity="0.2" d="M277.676 354.96L285.29 353.349L283.814 345.78L275.651 348.237L277.676 354.96Z" fill="#263238"/>
<path d="M232.461 218.124C241.362 251.757 276.237 353.88 276.237 353.88L285.831 351.675C285.831 351.675 280.98 316.179 274.014 296.1C272.898 292.905 271.314 290.286 270.531 287.892C269.568 284.85 269.937 282.564 268.947 275.292C267.804 266.904 266.13 255.906 264.204 247.293C263.691 244.98 263.349 243 263.106 241.074C262.818 238.815 262.737 237.141 262.53 231.894C262.233 224.694 259.479 214.848 256.599 208.575L230.751 209.664C230.751 209.664 231.903 216 232.461 218.124Z" fill="#5371FF"/>
<path d="M275.139 361.341C274.326 361.645 273.431 361.645 272.619 361.341C272.502 361.24 272.421 361.104 272.385 360.954C272.35 360.804 272.362 360.647 272.421 360.504C272.5 360.251 272.674 360.038 272.907 359.91C274.158 359.199 277.407 360.09 277.515 360.135C277.554 360.144 277.589 360.166 277.615 360.197C277.64 360.228 277.656 360.266 277.659 360.306C277.659 360.346 277.648 360.386 277.627 360.421C277.607 360.456 277.577 360.485 277.542 360.504C276.766 360.851 275.962 361.131 275.139 361.341ZM273.465 360.09C273.34 360.125 273.219 360.173 273.105 360.234C273.03 360.268 272.964 360.318 272.912 360.38C272.859 360.442 272.82 360.515 272.799 360.594C272.718 360.864 272.799 360.972 272.871 361.017C273.375 361.449 275.409 360.954 276.858 360.387C275.756 360.073 274.604 359.972 273.465 360.09Z" fill="#5371FF"/>
<path d="M277.515 360.495C277.489 360.504 277.46 360.504 277.434 360.495C276.363 360.315 273.987 359.055 273.924 358.101C273.924 357.876 273.987 357.57 274.5 357.39C274.684 357.322 274.881 357.292 275.077 357.302C275.273 357.311 275.465 357.359 275.643 357.444C276.885 358.029 277.65 360.144 277.686 360.243C277.697 360.277 277.699 360.313 277.691 360.348C277.683 360.383 277.666 360.415 277.641 360.441C277.606 360.472 277.562 360.491 277.515 360.495ZM274.725 357.723H274.608C274.275 357.84 274.284 357.984 274.284 358.038C274.374 358.596 275.985 359.64 277.137 359.982C276.809 359.095 276.219 358.329 275.445 357.786C275.223 357.671 274.967 357.642 274.725 357.705V357.723Z" fill="#5371FF"/>
<path d="M278.1 359.154L286.893 356.931C287.053 356.891 287.223 356.906 287.373 356.975C287.524 357.044 287.646 357.161 287.721 357.309L291.114 364.059C291.187 364.201 291.232 364.356 291.246 364.515C291.259 364.674 291.241 364.834 291.193 364.986C291.144 365.138 291.066 365.279 290.963 365.401C290.86 365.523 290.734 365.624 290.592 365.697C290.514 365.735 290.433 365.765 290.349 365.787C287.163 366.534 284.301 367.074 280.359 368.073C275.706 369.252 277.029 369.504 271.575 370.971C268.281 371.871 266.733 368.271 268.083 367.713C274.284 365.292 274.464 363.213 276.354 360.27C276.777 359.694 277.4 359.296 278.1 359.154Z" fill="#263238"/>
<g opacity="0.2">
<path d="M248.535 218.61L247.716 215.28C244.557 215.919 241.614 216.387 238.923 216.711L239.283 220.131C242.1 219.789 245.205 219.294 248.535 218.61Z" fill="black"/>
<path d="M227.034 217.341C224.625 217.307 222.22 217.121 219.834 216.783L220.14 220.302C222.528 220.606 224.932 220.771 227.34 220.797L227.034 217.341Z" fill="black"/>
<path d="M256.338 213.21C254.07 213.81 251.895 214.35 249.813 214.83L250.794 218.124C252.855 217.656 254.997 217.125 257.229 216.504L256.338 213.21Z" fill="black"/>
<path d="M236.25 216.99C233.496 217.242 231.021 217.35 228.834 217.359L229.203 220.806C230.103 220.806 231.003 220.806 231.903 220.743C233.379 220.68 234.954 220.572 236.628 220.41L236.25 216.99Z" fill="black"/>
</g>
<path d="M259.073 153.72L245.78 154.278C242.846 157.518 229.922 157.365 230.525 154.926L217.106 155.493C216.486 155.502 215.883 155.703 215.382 156.069C214.88 156.435 214.505 156.947 214.307 157.536C210.167 171.612 218.375 209.97 218.375 209.97C213.461 217.503 230.273 215.739 248.075 213.417C265.877 211.095 257.624 206.028 257.624 206.028C256.463 187.749 259.829 163.053 260.792 155.628C260.828 155.385 260.81 155.137 260.739 154.903C260.669 154.668 260.547 154.451 260.382 154.269C260.218 154.087 260.016 153.943 259.789 153.848C259.563 153.753 259.319 153.709 259.073 153.72Z" fill="#5371FF"/>
<g opacity="0.7">
<path d="M259.073 153.72L245.78 154.278C242.846 157.518 229.922 157.365 230.525 154.926L217.106 155.493C216.486 155.502 215.883 155.703 215.382 156.069C214.88 156.435 214.505 156.947 214.307 157.536C210.167 171.612 218.375 209.97 218.375 209.97C213.461 217.503 230.273 215.739 248.075 213.417C265.877 211.095 257.624 206.028 257.624 206.028C256.463 187.749 259.829 163.053 260.792 155.628C260.828 155.385 260.81 155.137 260.739 154.903C260.669 154.668 260.547 154.451 260.382 154.269C260.218 154.087 260.016 153.943 259.789 153.848C259.563 153.753 259.319 153.709 259.073 153.72Z" fill="white"/>
</g>
<path d="M233.154 120.699C233.154 120.699 225.135 121.392 225.81 125.064C226.485 128.736 233.208 125.415 233.208 125.415L233.154 120.699Z" fill="#263238"/>
<path d="M244.16 138.987C242.801 143.487 241.559 150.687 243.422 155.115C243.872 156.177 243.053 158.094 242.117 158.769C238.841 161.343 235.052 163.737 230.885 163.467C225.539 163.116 225.134 159.111 226.385 156.987C226.727 156.42 227.609 155.187 228.257 155.016C233.45 153.909 233.918 150.399 233.351 146.457L244.16 138.987Z" fill="#FF8B7B"/>
<path opacity="0.2" d="M239.769 142.056L233.37 146.439C233.49 147.406 233.529 148.381 233.487 149.355C235.737 149.265 238.788 147.69 239.904 145.341C240.615 143.91 240.3 142.29 239.769 142.056Z" fill="black"/>
<path d="M246.888 131.67C245.259 138.591 244.647 142.713 240.507 145.692C234.27 150.192 226.197 145.467 225.738 138.231C225.324 131.661 228.06 121.491 235.377 119.889C237.882 119.328 240.507 119.784 242.676 121.158C244.844 122.532 246.379 124.71 246.942 127.215C247.266 128.684 247.247 130.209 246.888 131.67Z" fill="#FF8B7B"/>
<path d="M236.223 131.13C235.935 131.661 235.413 131.958 235.062 131.76C234.711 131.562 234.657 130.977 234.954 130.437C235.251 129.897 235.764 129.609 236.115 129.807C236.466 130.005 236.52 130.599 236.223 131.13Z" fill="#263238"/>
<path d="M229.761 129.258C229.464 129.798 228.942 130.086 228.591 129.897C228.24 129.708 228.186 129.105 228.483 128.565C228.78 128.025 229.293 127.737 229.644 127.935C229.995 128.133 230.049 128.7 229.761 129.258Z" fill="#263238"/>
<path d="M239.346 130.041C239.282 130.02 239.226 129.982 239.183 129.931C239.14 129.881 239.112 129.819 239.103 129.753C239.048 129.304 238.887 128.875 238.634 128.501C238.38 128.127 238.041 127.819 237.644 127.602C237.601 127.583 237.561 127.556 237.527 127.522C237.494 127.488 237.468 127.448 237.45 127.403C237.433 127.359 237.424 127.311 237.425 127.264C237.426 127.216 237.436 127.169 237.455 127.125C237.474 127.082 237.501 127.043 237.535 127.011C237.568 126.979 237.608 126.953 237.652 126.937C237.695 126.92 237.742 126.912 237.788 126.913C237.835 126.915 237.881 126.926 237.923 126.945C238.427 127.214 238.86 127.6 239.185 128.069C239.511 128.539 239.72 129.079 239.796 129.645C239.803 129.692 239.802 129.739 239.791 129.786C239.78 129.832 239.76 129.875 239.733 129.914C239.705 129.952 239.67 129.985 239.63 130.01C239.59 130.035 239.545 130.051 239.498 130.059L239.346 130.041Z" fill="#263238"/>
<path d="M228.402 125.604C228.357 125.589 228.315 125.565 228.28 125.533C228.244 125.502 228.215 125.464 228.194 125.421C228.173 125.379 228.161 125.332 228.158 125.285C228.155 125.237 228.162 125.19 228.177 125.145C228.203 125.073 228.25 125.01 228.312 124.965C228.765 124.617 229.294 124.381 229.856 124.278C230.418 124.175 230.996 124.207 231.543 124.371C231.632 124.404 231.705 124.47 231.746 124.556C231.786 124.642 231.791 124.74 231.759 124.83C231.721 124.917 231.652 124.986 231.565 125.025C231.479 125.063 231.381 125.067 231.291 125.037C230.858 124.908 230.401 124.883 229.957 124.964C229.513 125.046 229.094 125.231 228.735 125.505C228.692 125.547 228.639 125.578 228.581 125.595C228.523 125.612 228.461 125.615 228.402 125.604Z" fill="#263238"/>
<path d="M230.967 130.419C229.723 131.615 228.321 132.636 226.8 133.452C227.02 133.834 227.321 134.164 227.682 134.419C228.042 134.674 228.454 134.848 228.888 134.928L230.967 130.419Z" fill="#DE5753"/>
<path d="M228.869 137.124C228.869 137.124 231.443 136.773 238.508 137.25C237.5 139.113 235.808 140.562 232.208 140.301C228.608 140.04 228.869 137.124 228.869 137.124Z" fill="#263238"/>
<path d="M234 138.906C232.618 138.733 231.215 138.961 229.959 139.563C230.609 140.012 231.374 140.265 232.164 140.292C233.544 140.464 234.945 140.233 236.196 139.626C235.55 139.176 234.787 138.926 234 138.906Z" fill="#DE5753"/>
<path d="M229.203 137.097C229.257 137.346 229.381 137.574 229.559 137.755C229.737 137.937 229.963 138.064 230.211 138.123C232.31 138.259 234.416 138.238 236.511 138.06C236.838 138.064 237.161 137.99 237.454 137.845C237.746 137.699 238 137.486 238.194 137.223C235.204 136.974 232.199 136.932 229.203 137.097Z" fill="white"/>
<path d="M244.799 136.422C243.811 133.976 243.446 131.322 243.737 128.7C243.737 128.7 241.091 125.433 241.415 122.634C241.415 122.634 227.258 123.534 227.15 117.306C227.042 111.078 235.871 117.243 235.871 117.243C235.871 117.243 235.934 108.531 242.171 115.929C242.171 115.929 249.605 117.063 250.685 123.246C250.685 123.246 253.754 122.787 253.16 128.268C251.864 131.597 249.95 134.651 247.517 137.268L244.799 136.422Z" fill="#263238"/>
<path d="M249.174 138.78C247.976 140.101 246.309 140.899 244.53 141.003C242.163 141.102 241.506 138.861 242.613 136.908C243.603 135.108 246.024 132.975 248.184 133.794C250.344 134.613 250.632 137.133 249.174 138.78Z" fill="#FF8B7B"/>
<path d="M251.928 129.411C251.928 129.411 254.322 125.658 255.195 126.927C256.068 128.196 251.928 129.411 251.928 129.411Z" fill="#263238"/>
<path d="M229.284 154.962C228.852 156.762 228.222 160.92 230.814 163.134C230.814 163.134 240.021 158.31 243.27 153.918C243.349 153.805 243.451 153.708 243.568 153.635C243.686 153.562 243.817 153.513 243.954 153.491C244.091 153.469 244.23 153.475 244.365 153.508C244.499 153.541 244.626 153.601 244.737 153.684L245.529 154.296C245.529 154.296 246.249 158.922 239.589 166.644C239.52 166.729 239.43 166.793 239.328 166.831C239.225 166.868 239.115 166.878 239.008 166.857C238.9 166.837 238.801 166.788 238.719 166.716C238.638 166.643 238.577 166.55 238.545 166.446C238.032 164.826 236.322 162.252 230.751 164.259C230.751 164.259 226.989 163.017 225.099 165.096C225.016 165.189 224.906 165.255 224.784 165.283C224.662 165.311 224.535 165.301 224.419 165.253C224.303 165.206 224.205 165.124 224.138 165.018C224.072 164.913 224.039 164.789 224.046 164.664C224.181 161.194 225.274 157.83 227.205 154.944L228.645 154.404C228.726 154.372 228.815 154.362 228.901 154.377C228.988 154.392 229.068 154.43 229.134 154.488C229.201 154.546 229.249 154.62 229.276 154.704C229.302 154.788 229.305 154.877 229.284 154.962Z" fill="#5371FF"/>
<path opacity="0.1" d="M221.454 210.033C221.454 210.033 234.738 211.743 245.403 208.512L221.454 210.033Z" fill="black"/>
<path opacity="0.1" d="M255.6 165.186C255.6 165.186 254.367 172.386 257.931 182.565C258.3 177.282 258.786 172.224 259.272 167.832L255.6 165.186Z" fill="black"/>
<path d="M260.613 154.422C260.613 154.422 252.063 160.182 256.032 170.487C260.001 180.792 273.879 212.4 273.879 212.4L280.935 210.6L272.367 181.863L260.613 154.377" fill="#5371FF"/>
<path opacity="0.7" d="M260.613 154.422C260.613 154.422 252.063 160.182 256.032 170.487C260.001 180.792 273.879 212.4 273.879 212.4L280.935 210.6L272.367 181.863L260.613 154.377" fill="white"/>
</svg>
